<svg width="28" height="21" viewBox="0 0 28 21" fill="none" xmlns="http://www.w3.org/2000/svg">
<path d="M5.43572 7.87158V8.76141H0.526634V21H12.5V7.9811C12.5 2.9296 8.68181 0 3.6663 0H0.500001V4.50391H2.09647C2.53326 4.48907 2.96842 4.56552 3.37568 4.72863C3.78295 4.89173 4.15387 5.13812 4.46599 5.45289C4.77811 5.76767 5.02496 6.14429 5.19163 6.56001C5.3583 6.97573 5.44135 7.42191 5.43572 7.87158Z" fill="#FF544A"/>
<path d="M20.453 7.85462V8.7456H15.5V21H27.5V7.96428C27.4987 7.50574 27.4673 7.04781 27.4061 6.59354C27.4061 6.52501 27.4061 6.45646 27.4061 6.36051C27.1438 4.77981 26.3741 3.33312 25.2181 2.24829C24.602 1.68578 23.9048 1.22346 23.151 0.877555C22.9497 0.795311 22.7752 0.713068 22.6678 0.685653C21.4204 0.222815 20.1023 -0.00927133 18.7751 0.00028344H15.5805V4.51002H17.0167C17.4597 4.48968 17.9022 4.56105 18.3175 4.71983C18.7328 4.87861 19.1124 5.12152 19.4334 5.43396C19.7544 5.7464 20.0102 6.12191 20.1854 6.5379C20.3606 6.95389 20.4516 7.40178 20.453 7.85462Z" fill="#FF544A"/>
</svg>
